<svg id="Layer_2" data-name="Layer 2" xmlns="http://www.w3.org/2000/svg" viewBox="0 0 2000 2000"><defs><style>.cls-1,.cls-2{fill:none;stroke:#000;stroke-miterlimit:10;}.cls-1{stroke-width:40px;}.cls-2{stroke-width:120px;}</style></defs><line class="cls-1" x1="1027.29" y1="1472.448" x2="1385.258" y2="1830.415"/><line class="cls-1" x1="1027.29" y1="1104.468" x2="1613.245" y2="1690.423"/><line class="cls-1" x1="1027.29" y1="736.488" x2="1783.612" y2="1492.81"/><line class="cls-1" x1="1027.29" y1="368.508" x2="1893.299" y2="1234.517"/><line class="cls-1" x1="1115.659" y1="88.897" x2="1909.013" y2="882.251"/><circle class="cls-2" cx="1003" cy="1002" r="919.95"/><path d="M650.4,520.261H524.952a58.988,58.988,0,0,0-58.988,58.988v904.49H616.188a58.988,58.988,0,0,0,58.988-58.988V918.039l256.872,422.274V987.883Z"/><polygon points="931.048 82.051 931.048 1008.462 931.048 1338.24 931.048 1921.949 1078.24 1921.949 1078.24 1327.575 1078.24 1007.559 1078.24 82.051 931.048 82.051"/></svg>